PathFileType	4	(X/Y/Z)	./resultDataOpenSim/trcMotMarkerGrf/sub10/qtm-01-03.trc
DataRate	CameraRate	NumFrames	NumMarkers	Units	OrigDataRate	OrigDataStartFrame	OrigNumFrames
250.000000	250.000000	7	24	m	250.000000	302	482
Frame#	Time	L.Toe.Tip			R.Toe.Tip			L.Ankle.Lat			R.Ankle.Lat			L.Ankle.Med			R.Ankle.Med			L.Heel			R.Heel			L.Knee.Lat			R.Knee.Lat			L.Knee.Med			R.Knee.Med			L.Thigh.Upper			R.Thigh.Upper			L.ASIS			R.ASIS			V.Sacral			L.Acromium			R.Acromium			C7			L.Elbow			R.Elbow			L.Wrist.Lat			R.Wrist.Lat
		X1	Y1	Z1	X2	Y2	Z2	X3	Y3	Z3	X4	Y4	Z4	X5	Y5	Z5	X6	Y6	Z6	X7	Y7	Z7	X8	Y8	Z8	X9	Y9	Z9	X10	Y10	Z10	X11	Y11	Z11	X12	Y12	Z12	X13	Y13	Z13	X14	Y14	Z14	X15	Y15	Z15	X16	Y16	Z16	X17	Y17	Z17	X18	Y18	Z18	X19	Y19	Z19	X20	Y20	Z20	X21	Y21	Z21	X22	Y22	Z22	X23	Y23	Z23	X24	Y24	Z24

302	1.204	0.08121714	0.042769583	-0.060774735	0.85801175	0.046002032	0.13120772	0.017346051	0.1596401	-0.087476464	0.72197672	0.052683749	0.18373478	0.046743017	0.16316532	-0.0075895958	0.7336339	0.080565932	0.098949696	-0.042107008	0.18343036	-0.037453344	0.67013424	0.026781584	0.14059788	0.29885289	0.42704103	-0.11919544	0.65715423	0.44869159	0.1912446	0.31297624	0.38954099	-0.0023633993	0.65974308	0.44792539	0.063980596	0.39601211	0.80102249	-0.14699367	0.50791443	0.83144242	0.22688079	0.47928098	0.90487579	-0.10500409	0.54890141	0.9264168	0.13510317	0.31001114	0.92103023	0.084615052	0.44136535	1.3740051	-0.12564681	0.40271774	1.3773566	0.19651283	0.34099061	1.4019538	0.020137615	0.44232197	1.019481	-0.16192204	0.22491299	1.0847613	0.20613226	0.67755211	0.93313933	-0.17242235	0.22224643	0.86291267	0.30453187
303	1.208	0.082894848	0.042530386	-0.060745833	0.86022449	0.043859561	0.1308313	0.023845634	0.16221752	-0.087521472	0.72394816	0.05245756	0.18394829	0.054071097	0.16467019	-0.0082156605	0.73550883	0.080090984	0.098911593	-0.034118022	0.18789055	-0.036983689	0.67116512	0.027528472	0.14120554	0.30792553	0.42667362	-0.11916665	0.66281986	0.44914968	0.19191022	0.32358799	0.3880947	-0.0027523935	0.66415121	0.44733192	0.064977558	0.40497197	0.79989155	-0.14593473	0.51620687	0.83288907	0.22866205	0.48746019	0.90425942	-0.10368862	0.55618157	0.92692176	0.13653785	0.31785902	0.92125855	0.085410949	0.44771059	1.3744104	-0.12471186	0.40930637	1.3775664	0.19745682	0.34733417	1.4018848	0.02124559	0.44778188	1.0198483	-0.16074616	0.232587	1.0844081	0.20738869	0.6828272	0.9326768	-0.171292	0.23040305	0.86268606	0.30592895
304	1.212	0.08465425	0.042520364	-0.060679348	0.86249759	0.042364029	0.13127449	0.03048759	0.16473712	-0.087616956	0.72554181	0.052324873	0.18400561	0.061489212	0.16626354	-0.0089398302	0.73709657	0.079647597	0.098721968	-0.025892225	0.19234954	-0.036819773	0.67201952	0.028061354	0.1415363	0.3171136	0.42624469	-0.11916351	0.6686792	0.44986576	0.19253242	0.33408145	0.38647709	-0.0032269693	0.66882977	0.44713863	0.065784074	0.41391433	0.79871855	-0.14483106	0.52436974	0.83439504	0.23037006	0.49550894	0.90358588	-0.10242749	0.56336982	0.92739567	0.13793671	0.32538928	0.92158413	0.08639301	0.45407187	1.3748071	-0.12377641	0.41589225	1.3777768	0.19838315	0.35370349	1.4018142	0.022376952	0.45322126	1.0202444	-0.15960908	0.24033937	1.084068	0.20864738	0.68803475	0.93214774	-0.17019578	0.23862374	0.86237988	0.30726729
305	1.216	0.086589347	0.042835573	-0.060566806	0.86437979	0.041299698	0.13212267	0.037276582	0.1672399	-0.087733986	0.72678102	0.052239709	0.18386763	0.068928798	0.16790509	-0.0095312527	0.73833006	0.079241322	0.098452672	-0.017529382	0.19682119	-0.036842457	0.67267261	0.028407545	0.14165305	0.32646444	0.42575135	-0.11920793	0.67473196	0.45070263	0.1930952	0.34445149	0.38472792	-0.0037410735	0.67365779	0.4473876	0.066288872	0.42282626	0.79751055	-0.14370341	0.53237458	0.83596085	0.23199659	0.50352727	0.90288794	-0.10113802	0.57045928	0.92783395	0.1392855	0.33223771	0.92215443	0.087744576	0.46043827	1.3751957	-0.12284549	0.42248245	1.3779923	0.19928715	0.3600851	1.4017385	0.02352274	0.45864656	1.0206549	-0.15849669	0.24815223	1.0837339	0.20991626	0.69317345	0.93155097	-0.16913695	0.24692996	0.8620024	0.30856016
306	1.22	0.088761645	0.043495374	-0.060417459	0.86561439	0.040559365	0.13278188	0.044258776	0.16977271	-0.087875206	0.72759352	0.052211411	0.18364558	0.076422064	0.16957078	-0.009919735	0.73913851	0.078919503	0.098195097	-0.009075292	0.20133332	-0.036878217	0.67312153	0.028606379	0.14171457	0.33597166	0.42518668	-0.11926912	0.68095661	0.45154681	0.19360486	0.354857	0.38289914	-0.004285091	0.67855909	0.44807864	0.066473201	0.43170242	0.79628248	-0.14258976	0.5402023	0.83760105	0.23354324	0.51162284	0.90221783	-0.09972866	0.57744796	0.92822446	0.14058041	0.33839415	0.92296369	0.089435796	0.46680562	1.3755789	-0.12193033	0.42907651	1.3782056	0.20017071	0.36647641	1.4016836	0.024642046	0.46405128	1.0210638	-0.15741692	0.25600186	1.0833767	0.21120306	0.69824312	0.93088901	-0.16812001	0.25535413	0.86156776	0.30983116
307	1.224	0.091183238	0.044458668	-0.060262609	0.86625566	0.040102594	0.13293441	0.051487788	0.17236135	-0.088068924	0.72781293	0.052298127	0.18353013	0.084055842	0.17126218	-0.010190309	0.73946253	0.078742809	0.098027236	-0.00048019286	0.20589899	-0.036817763	0.67339423	0.028699834	0.14182457	0.34556523	0.42454248	-0.11928964	0.68726732	0.45235278	0.19408005	0.36546679	0.38105302	-0.0048849804	0.68353311	0.44915838	0.066460014	0.44053819	0.79504808	-0.14151608	0.54782223	0.83931793	0.23500234	0.51988405	0.90163526	-0.098118714	0.5843383	0.92856266	0.14182476	0.34430681	0.92381792	0.091181971	0.4731818	1.3759619	-0.12103853	0.43566177	1.3784112	0.20104063	0.3728827	1.401687	0.02567839	0.46942057	1.021463	-0.15639871	0.26387862	1.0829692	0.21250797	0.70324146	0.93016529	-0.16715163	0.26391277	0.86108272	0.3110977
308	1.228	0.093833297	0.045656328	-0.06012952	0.8665347	0.039849881	0.13271225	0.059003668	0.17500852	-0.088326066	0.72753632	0.052496064	0.18354501	0.091894378	0.17296834	-0.010426517	0.73935869	0.07873959	0.097990368	0.0083879638	0.21051427	-0.036671138	0.67354895	0.02873734	0.14197849	0.35517633	0.42381118	-0.11924838	0.69354765	0.45313752	0.1945436	0.37634498	0.37924071	-0.0055341759	0.68861713	0.45052174	0.066434289	0.44932503	0.7938229	-0.14049079	0.55519452	0.84109036	0.23636046	0.52830925	0.9011623	-0.096304089	0.59113354	0.92885682	0.14302108	0.35056761	0.92449305	0.092635153	0.47957983	1.3763498	-0.12017458	0.44222253	1.378612	0.20190247	0.37929824	1.4017597	0.026606685	0.47475096	1.0218477	-0.15545721	0.2717803	1.082504	0.21383069	0.70816494	0.92938243	-0.16623692	0.27260438	0.86054591	0.3123683
